<svg width="100" height="100" viewBox="0 0 100 100" fill="none" xmlns="http://www.w3.org/2000/svg">
<path d="M40.625 61.5385C36.416 65.3085 31.25 67.9487 25.3906 67.9487C14.8203 67.9487 6.25 59.3349 6.25 48.718C6.25 38.101 14.8203 29.4872 25.3906 29.4872C40.625 29.4872 50 48.718 50 48.718C50 48.718 59.375 67.9487 74.6094 67.9487C85.1797 67.9487 93.75 59.3349 93.75 48.718C93.75 38.101 85.1797 29.4872 74.6094 29.4872C68.873 29.4872 63.543 32.2416 59.375 35.8974" stroke="url(#paint0_linear_22_2)" stroke-width="9.375" stroke-miterlimit="10" stroke-linecap="round"/>
<path d="M27.5 94.0766L83.3305 66.6667" stroke="#F76B15" stroke-width="8" stroke-linecap="round"/>
<path d="M17.5 30.5913L74.2032 5.12822" stroke="#FFC53D" stroke-width="8" stroke-linecap="round"/>
<defs>
<linearGradient id="paint0_linear_22_2" x1="56.123" y1="38.2938" x2="56.123" y2="58.9624" gradientUnits="userSpaceOnUse">
<stop stop-color="#FFC53D"/>
<stop offset="1" stop-color="#F76B15"/>
</linearGradient>
</defs>
</svg>
