<svg width="100" height="101" viewBox="0 0 100 101" fill="none" xmlns="http://www.w3.org/2000/svg">
<path d="M90.207 86.4375C89.9327 86.9127 89.5381 87.3072 89.0629 87.5815C88.5877 87.8558 88.0486 88.0001 87.5 88H12.5C11.9517 87.9994 11.4132 87.8546 10.9386 87.5801C10.464 87.3056 10.0699 86.9111 9.79604 86.4361C9.52215 85.9612 9.37803 85.4225 9.37817 84.8742C9.37831 84.3259 9.5227 83.7873 9.79685 83.3125C15.7461 73.0274 24.914 65.6524 35.6132 62.1563C30.3209 59.0057 26.2091 54.205 23.9093 48.4914C21.6095 42.7778 21.2487 36.4672 22.8825 30.5287C24.5164 24.5903 28.0543 19.3523 32.9532 15.6192C37.852 11.8862 43.8409 9.86438 50 9.86438C56.1591 9.86438 62.1479 11.8862 67.0467 15.6192C71.9456 19.3523 75.4836 24.5903 77.1174 30.5287C78.7512 36.4672 78.3905 42.7778 76.0906 48.4914C73.7908 54.205 69.679 59.0057 64.3867 62.1563C75.0859 65.6524 84.2539 73.0274 90.2031 83.3125C90.478 83.7872 90.623 84.3259 90.6237 84.8745C90.6244 85.423 90.4807 85.9621 90.207 86.4375Z" fill="url(#paint0_linear_14_2)"/>
<defs>
<linearGradient id="paint0_linear_14_2" x1="55.6863" y1="27.7552" x2="55.6863" y2="69.744" gradientUnits="userSpaceOnUse">
<stop stop-color="#FFC53D"/>
<stop offset="1" stop-color="#F76B15"/>
</linearGradient>
</defs>
</svg>
