<svg width="40" height="40" viewBox="0 0 40 40" fill="none" xmlns="http://www.w3.org/2000/svg">
<path fill-rule="evenodd" clip-rule="evenodd" d="M2.66663 25.3335C2.66663 27.5427 4.45748 29.3336 6.66663 29.3336H10.6666V26.6669H6.66663C5.93025 26.6669 5.33329 26.0699 5.33329 25.3335V6.66684C5.33329 5.93047 5.93025 5.33351 6.66663 5.33351H25.3333C26.0697 5.33351 26.6666 5.93047 26.6666 6.66684V10.6667H14.6666C12.4575 10.6667 10.6666 12.4576 10.6666 14.6667V33.3333C10.6666 35.5424 12.4575 37.3333 14.6666 37.3333H33.3333C35.5424 37.3333 37.3333 35.5424 37.3333 33.3333V14.6667C37.3333 12.4576 35.5424 10.6667 33.3333 10.6667H29.3333V6.66684C29.3333 4.45769 27.5424 2.66684 25.3333 2.66684H6.66663C4.45748 2.66684 2.66663 4.45769 2.66663 6.66684V25.3335ZM13.3333 14.6667C13.3333 13.9304 13.9303 13.3334 14.6666 13.3334H33.3333C34.0696 13.3334 34.6666 13.9304 34.6666 14.6667V33.3333C34.6666 34.0699 34.0696 34.6667 33.3333 34.6667H14.6666C13.9303 34.6667 13.3333 34.0699 13.3333 33.3333V14.6667Z" fill="#FFC53D"/>
</svg>
