<svg width="40" height="41" viewBox="0 0 40 41" fill="none" xmlns="http://www.w3.org/2000/svg">
<path d="M35.59 4.91C34.9817 4.30112 34.2593 3.81809 33.4643 3.48853C32.6692 3.15898 31.8169 2.98935 30.9562 2.98935C30.0956 2.98935 29.2433 3.15898 28.4482 3.48853C27.6531 3.81809 26.9308 4.30112 26.3225 4.91L6.64249 24.59C5.70831 25.5257 5.04187 26.6945 4.71249 27.975L2.53749 36.44C2.48355 36.6506 2.48548 36.8717 2.54309 37.0813C2.6007 37.291 2.71199 37.482 2.86598 37.6354C3.01997 37.7889 3.21133 37.8996 3.42116 37.9565C3.631 38.0134 3.85205 38.0146 4.06249 37.96L12.525 35.7875C13.8059 35.4593 14.9751 34.7927 15.91 33.8575L35.59 14.1775C36.1989 13.5692 36.6819 12.8469 37.0115 12.0518C37.341 11.2567 37.5106 10.4044 37.5106 9.54375C37.5106 8.68307 37.341 7.83083 37.0115 7.03574C36.6819 6.24065 36.1989 5.51831 35.59 4.91ZM28.09 6.6775C28.8502 5.91732 29.8812 5.49026 30.9562 5.49026C32.0313 5.49026 33.0623 5.91732 33.8225 6.6775C34.5827 7.43768 35.0097 8.4687 35.0097 9.54375C35.0097 10.6188 34.5827 11.6498 33.8225 12.41L31.875 14.3575L26.1425 8.625L28.09 6.6775ZM24.375 10.3925L30.1075 16.125L14.1425 32.09C13.5237 32.7083 12.75 33.1487 11.9025 33.365L5.48499 35.015L7.13499 28.5975C7.35018 27.7495 7.79074 26.9755 8.40999 26.3575L24.375 10.3925Z" fill="#F76B15"/>
</svg>
