<svg width="45" height="45" viewBox="0 0 45 45" fill="none" xmlns="http://www.w3.org/2000/svg">
<path fill-rule="evenodd" clip-rule="evenodd" d="M16.5 3C15.6716 3 15 3.67158 15 4.5C15 5.32842 15.6716 6 16.5 6H28.5C29.3284 6 30 5.32842 30 4.5C30 3.67158 29.3284 3 28.5 3H16.5ZM9 10.5C9 9.67158 9.67158 9 10.5 9H15H30H34.5C35.3283 9 36 9.67158 36 10.5C36 11.3284 35.3283 12 34.5 12H33V36C33 37.6569 31.6569 39 30 39H15C13.3432 39 12 37.6569 12 36V12H10.5C9.67158 12 9 11.3284 9 10.5ZM15 12H30V36H15V12Z" fill="#E54666"/>
</svg>
